# xmcd
#
# Track frame offsets:
#	150
#	19344
#	38417
#	56708
#	72188
#	94693
#	117035
#	131760
#	143683
#	157978
#	178595
#	198094
#	218662
#	246314
#
# Disc length: 3485 seconds
#
# Revision: 0
# Processed by: cddbd v1.5.2PL0 Copyright (c) Steve Scherf et al.
# Submitted via: EasyCDDAExtractor 16.0.1.1
#
DISCID=bb0d9b0e
DTITLE=Rory Block - From The Dust
DYEAR=2005
DGENRE=Blues
TTITLE0=From The Dust
TTITLE1=One Way Down
TTITLE2=The Gate
TTITLE3=David Had The Blues
TTITLE4=Big As Texas
TTITLE5=High Water Everywhere
TTITLE6=I Be Bound
TTITLE7=Stones In My Passway
TTITLE8=Dry Spell Blues
TTITLE9=Fargo Baby
TTITLE10=Runaway Dog
TTITLE11=Take A Train
TTITLE12=Remember
TTITLE13=Unprecedented Quiet
EXTD=
EXTT0=
EXTT1=
EXTT2=
EXTT3=
EXTT4=
EXTT5=
EXTT6=
EXTT7=
EXTT8=
EXTT9=
EXTT10=
EXTT11=
EXTT12=
EXTT13=
PLAYORDER=
